<svg width="24.000000" height="24.000000" viewBox="0 0 24 24" fill="none" xmlns="http://www.w3.org/2000/svg" xmlns:xlink="http://www.w3.org/1999/xlink">
	<path id="Ellipse 1574" d="M12 22C6.47717 22 2 17.5228 2 12C2 6.47717 6.47717 2 12 2C17.5228 2 22 6.47717 22 12C22 17.5228 17.5228 22 12 22Z" stroke="currentColor" stroke-width="1.500000"/>
	<path id="Ellipse 1576" d="M7.93054 17.5C7.38196 17.0746 6.89893 16.5649 6.5 15.9897M16.0261 6.5C16.5947 6.9408 17.0928 7.47217 17.5 8.07318" stroke="currentColor" stroke-width="1.500000"/>
	<path id="Ellipse 1575" d="M12 9.5C10.6193 9.5 9.5 10.6193 9.5 12C9.5 13.3807 10.6193 14.5 12 14.5C13.3807 14.5 14.5 13.3807 14.5 12C14.5 10.6193 13.3807 9.5 12 9.5Z" stroke="currentColor" stroke-width="1.500000"/>
</svg>
