<svg width="24.000000" height="24.000000" viewBox="0 0 24 24" fill="none" xmlns="http://www.w3.org/2000/svg" xmlns:xlink="http://www.w3.org/1999/xlink">
	<path id="vector" d="M11.25 4.77997C8.76053 4.97972 6.54913 6.16515 5.00638 7.94571L7.03033 9.96967C7.17679 10.1161 7.25 10.3081 7.25 10.5C7.25 10.6919 7.17679 10.8839 7.03033 11.0303C6.73743 11.3232 6.26257 11.3232 5.96967 11.0303L4.10953 9.17018C3.24719 10.576 2.75 12.2299 2.75 14C2.75 14.7763 2.84549 15.5299 3.02539 16.25L6 16.25C6.41422 16.25 6.75 16.5858 6.75 17C6.75 17.4142 6.41422 17.75 6 17.75L3.54147 17.75C3.77603 18.2782 4.05865 18.7804 4.38379 19.251L8.32483 19.251C8.62985 17.7462 9.83594 16.5684 11.3555 16.3052L12.2602 10.8768C12.3283 10.4682 12.7147 10.1922 13.1233 10.2603C13.4901 10.3215 13.7501 10.6392 13.7501 10.9992C13.7501 11.0402 13.7467 11.0817 13.7398 11.1234L12.8685 16.3511C14.2813 16.6861 15.3848 17.8204 15.675 19.25L19.6163 19.2509C19.9414 18.7803 20.224 18.2782 20.4585 17.75L18 17.75C17.5858 17.75 17.25 17.4142 17.25 17C17.25 16.5858 17.5858 16.25 18 16.25L20.9746 16.25C21.1545 15.5299 21.25 14.7763 21.25 14C21.25 12.2299 20.7528 10.576 19.8905 9.17018L18.0303 11.0303C17.7374 11.3232 17.2626 11.3232 16.9697 11.0303C16.8232 10.8839 16.75 10.6919 16.75 10.5C16.75 10.3081 16.8232 10.1161 16.9697 9.96967L18.9937 7.94571C17.4509 6.16515 15.2395 4.97972 12.75 4.77997L12.75 8C12.75 8.41421 12.4142 8.75 12 8.75C11.5858 8.75 11.25 8.41421 11.25 8L11.25 4.77997ZM8.32523 20.751L4 20.751C3.76416 20.751 3.54205 20.64 3.40039 20.4515C2.05032 18.6546 1.25 16.4197 1.25 14C1.25 8.06294 6.06293 3.25 12 3.25C17.9371 3.25 22.75 8.06294 22.75 14C22.75 16.4197 21.9497 18.6546 20.5996 20.4515C20.4579 20.6401 20.2357 20.751 19.9998 20.751L15.675 20.75C15.3275 22.4617 13.8142 23.75 12 23.75C10.1861 23.75 8.67303 22.4622 8.32523 20.751ZM12.0171 17.7501C12.0062 17.7503 11.9952 17.7503 11.9843 17.7501C10.7489 17.7585 9.75 18.7626 9.75 20C9.75 21.2426 10.7574 22.25 12 22.25C13.2426 22.25 14.25 21.2426 14.25 20C14.25 18.7631 13.2519 17.7592 12.0171 17.7501Z" clip-rule="evenodd" fill-rule="evenodd" fill="currentColor" fill-opacity="1.000000"/>
</svg>
