<svg width="24.000000" height="24.000000" viewBox="0 0 24 24" fill="none" xmlns="http://www.w3.org/2000/svg" xmlns:xlink="http://www.w3.org/1999/xlink">
	<defs>
		<clipPath id="clip6_93">
			<rect id="font-size" width="24.000000" height="24.000000" fill="white"/>
		</clipPath>
	</defs>
	<g clip-path="url(#clip6_93)">
		<path id="矢量 15" d="M11.246 15L4.75397 15L2.75397 20L0.599976 20L7 4L9 4L15.4 20L13.246 20L11.246 15ZM10.446 13L8 6.88501L5.55396 13L10.446 13L10.446 13ZM21 12.535L21 12L23 12L23 20L21 20L21 19.465C20.3918 19.8157 19.7021 20.0002 19.0002 20C18.2982 19.9998 17.6086 19.8148 17.0008 19.4637C16.3929 19.1125 15.8882 18.6076 15.5372 17.9996C15.1863 17.3916 15.0016 16.702 15.0016 16C15.0016 15.298 15.1863 14.6084 15.5372 14.0004C15.8882 13.3924 16.3929 12.8875 17.0008 12.5363C17.6086 12.1852 18.2982 12.0002 19.0002 12C19.7021 11.9998 20.3918 12.1843 21 12.535L21 12.535ZM19 18C19.5304 18 20.0391 17.7893 20.4142 17.4142C20.7892 17.0391 21 16.5304 21 16C21 15.4696 20.7892 14.9609 20.4142 14.5858C20.0391 14.2107 19.5304 14 19 14C18.4695 14 17.9609 14.2107 17.5858 14.5858C17.2107 14.9609 17 15.4696 17 16C17 16.5304 17.2107 17.0391 17.5858 17.4142C17.9609 17.7893 18.4695 18 19 18L19 18Z" fill-rule="evenodd" fill="currentColor"/>
		<g opacity="0.000100">
			<rect id="矩形" x="16.000000" y="2.000000" width="8.000000" height="8.000000" fill="currentColor"/>
		</g>
		<path id="路径" d="M17.125 6.5L20.5 6.5L22.875 6.5C22.9437 6.5 23 6.44373 23 6.375L23 5.625C23 5.55627 22.9437 5.5 22.875 5.5L19.5 5.5L17.125 5.5C17.0563 5.5 17 5.55627 17 5.625L17 6.375C17 6.44373 17.0563 6.5 17.125 6.5Z" fill-rule="evenodd" fill="currentColor"/>
	</g>
</svg>
