<svg width="24.000000" height="24.000000" viewBox="0 0 24 24" fill="none" xmlns="http://www.w3.org/2000/svg" xmlns:xlink="http://www.w3.org/1999/xlink">
	<path id="矢量 8" d="M21.3423 16.5698Q21.7949 15.4053 21.7949 13.7178L21.7949 11.4326Q21.7773 8.84863 20.6523 7.43799Q20.2756 6.96553 19.7952 6.65131Q18.8415 6.02734 17.4795 6.02734Q16.2026 6.02734 15.2803 6.59922Q14.7361 6.93664 14.3154 7.47314Q13.1816 8.91895 13.1816 11.5029L13.1816 13.832Q13.208 16.3721 14.355 17.7739Q14.779 18.2922 15.3189 18.6188Q16.2395 19.1758 17.4971 19.1758Q18.0156 19.1758 18.5693 19.0615L20.8721 21.1621L21.9619 20.0986L20.0547 18.3848Q20.8896 17.7344 21.3423 16.5698ZM10.7559 19L9.13867 19L9.13867 13.085L3.98828 13.085L3.98828 19L2.37988 19L2.37988 6.20312L3.98828 6.20312L3.98828 11.7051L9.13867 11.7051L9.13867 6.20312L10.7559 6.20312L10.7559 19ZM19.5229 8.46631Q20.1865 9.45508 20.1865 11.4854L20.1865 13.9375Q20.1514 15.8799 19.4922 16.8115Q19.2825 17.1079 19.0043 17.31Q18.408 17.7432 17.4971 17.7432Q16.6959 17.7432 16.1303 17.3782Q15.7465 17.1305 15.4712 16.7148Q14.79 15.6865 14.79 13.7178L14.79 11.4326Q14.7988 9.48145 15.48 8.47949Q15.7553 8.07452 16.1347 7.83323Q16.694 7.47754 17.4795 7.47754Q18.3944 7.47754 18.9944 7.91221Q19.2993 8.13312 19.5229 8.46631Z" fill-rule="evenodd" fill="currentColor"/>
</svg>
