<svg width="86.470581" height="12.005859" viewBox="0 0 86.4706 12.0059" fill="none" xmlns="http://www.w3.org/2000/svg" xmlns:xlink="http://www.w3.org/1999/xlink">
	<path id="矢量 489" d="M6.71484 9.37793L3.72656 0L0 0L0 12.0059L2.43018 12.0059L2.43018 3.00586L5.40088 12.0059L8.02881 12.0059L11.1621 3.00586L11.1621 12.0059L13.5923 12.0059L13.5923 0L9.86572 0L6.71484 9.37793ZM36.3598 2.33789L36.3598 0L38.7724 0L38.7724 2.33789L36.3598 2.33789ZM59.9205 4.91309L59.9205 7.05762L52.7574 7.05762L52.7574 12.0059L50.2218 12.0059L50.2218 5.74365Q50.2394 3.04102 50.7228 2.19727Q51.1099 1.44788 51.7129 0.97168Q52.0681 0.69104 52.4982 0.505371Q53.6583 0 55.7633 0L59.9205 0L59.9205 2.14014L56.0885 2.14014Q54.3087 2.17969 53.8033 2.43018Q53.5122 2.54919 53.302 2.75208L53.3019 2.75208Q52.7825 3.25342 52.7574 4.26709L52.7574 4.91309L59.9205 4.91309ZM21.728 10.1338L21.728 3.23877L24.1406 3.23877L24.1406 12.0059L19.3857 12.0059Q18.3618 12.0059 17.8037 11.8521Q17.5499 11.7821 17.3224 11.6622Q17.0497 11.5184 16.8149 11.3027Q15.8964 10.4766 15.8964 8.62207L15.8964 3.23877L18.2871 3.23877L18.2871 8.87256Q18.2871 9.41785 18.5544 9.74414L18.5547 9.74451Q18.5781 9.77295 18.6035 9.7998Q18.6825 9.8833 18.7756 9.94592L18.7758 9.94604L18.7759 9.94604L18.7766 9.94653Q19.0556 10.1338 19.4604 10.1338L21.728 10.1338ZM34.1116 5.11084L34.1116 3.23877L28.9612 3.23877Q27.5417 3.23877 26.966 3.70898Q26.5762 4.02515 26.3457 4.43164L26.3457 4.43176L26.3456 4.43188L26.3456 4.43201L26.3455 4.43213Q26.0124 5.0199 26.0124 5.79639Q26.0124 6.26538 26.142 6.69531L26.1421 6.69556L26.1422 6.6958Q26.202 6.89404 26.2893 7.08398Q26.5475 7.63672 26.9762 7.97095Q27.0144 8.00073 27.0539 8.02881Q27.3487 8.2417 27.6776 8.35693L27.6782 8.35718L27.6784 8.35718Q27.7904 8.39636 27.9065 8.42432Q28.3679 8.52979 29.2336 8.52979L30.6926 8.52979Q31.5188 8.52979 31.7341 8.63965Q31.9013 8.71643 32.0036 8.84485L32.0037 8.84497Q32.1648 9.04736 32.1648 9.37793Q32.1648 9.72217 31.9932 9.90771L31.9931 9.90771Q31.8318 10.0822 31.5188 10.1162Q31.2287 10.1338 30.4377 10.1338L26.1355 10.1338L26.1355 12.0059L31.1233 12.0059Q32.4548 12.0059 33.0217 11.8081Q33.0516 11.7977 33.081 11.786L33.0845 11.7847Q33.6107 11.5753 33.9841 10.9819Q34.2674 10.5651 34.4022 10.1047L34.4023 10.1044L34.4024 10.1042Q34.5246 9.68652 34.5246 9.23291Q34.5246 8.38843 34.1286 7.8197L34.1285 7.81958Q33.9331 7.53906 33.6413 7.32568Q32.8503 6.75 31.4836 6.75L30.0598 6.75Q29.1062 6.75 28.8909 6.60498Q28.695 6.48096 28.5961 6.30298L28.5961 6.30298L28.596 6.30286Q28.4953 6.12146 28.4953 5.88428Q28.4953 5.50732 28.6838 5.3208Q28.7744 5.2312 28.9084 5.18555Q29.1062 5.11084 29.8445 5.11084L34.1116 5.11084ZM36.3598 3.23877L38.7724 3.23877L38.7724 12.0059L36.3598 12.0059L36.3598 3.23877ZM48.4734 5.11084L48.4734 3.23877L45.1819 3.23877Q43.9734 3.23877 43.2176 3.43652Q42.5352 3.61511 42.0283 4.01562Q41.9737 4.05884 41.9212 4.10449Q41.7315 4.26636 41.5686 4.45166L41.5684 4.45178L41.5684 4.45178Q40.5721 5.58472 40.5721 7.59375Q40.5721 9.07385 41.2274 10.1576L41.229 10.1603L41.2291 10.1604Q41.4352 10.5006 41.7058 10.8018Q42.1942 11.348 42.8046 11.6292L42.8054 11.6295L42.806 11.6299Q42.9365 11.6898 43.0725 11.7378Q43.8504 12.0059 45.1819 12.0059L48.4734 12.0059L48.4734 10.1338L45.8806 10.1338Q45.1248 10.1338 44.7029 10.0371Q44.5275 9.99512 44.3628 9.92725L44.3627 9.92725L44.3626 9.92712Q44.1311 9.83179 43.9207 9.68555Q43.7292 9.54456 43.5793 9.36829L43.5792 9.36829Q43.0374 8.7312 43.0374 7.6333Q43.0374 6.37207 43.5779 5.76123Q44.136 5.11084 45.595 5.11084L48.4734 5.11084ZM65.3216 3.23877L61.7576 3.23877L61.7576 12.0059L64.1702 12.0059L64.1702 5.11084L64.8557 5.11084Q65.7742 5.11084 66.095 5.45361Q66.4202 5.79639 66.4202 6.73242L66.4202 7.19824L68.7405 7.19824L68.7405 6.35449Q68.7405 5.34375 68.5779 4.80762Q68.4713 4.44324 68.2568 4.16077Q68.1531 4.02417 68.0242 3.90674Q67.6287 3.54639 67.0222 3.39258Q66.4202 3.23877 65.3216 3.23877ZM77.3446 6.67969L77.3446 8.55176L72.269 8.55176Q72.3406 9.37793 72.7883 9.74329Q72.8074 9.75879 72.8271 9.77344Q73.3148 10.1338 74.4135 10.1338L77.3446 10.1338L77.3446 12.0059L74.141 12.0059Q73.0995 12.0059 72.4403 11.8169Q72.3784 11.799 72.3171 11.7789Q71.7311 11.5872 71.2099 11.1973Q70.7811 10.8649 70.4669 10.4463Q69.6059 9.29932 69.6059 7.50586Q69.6059 6.38367 70.0326 5.45825Q70.2075 5.0791 70.454 4.73291Q70.9689 4.00977 71.67 3.65918L71.6724 3.65796Q71.7541 3.61719 71.8383 3.58154Q72.6469 3.23877 73.9608 3.23877L77.3446 3.23877L77.3446 5.11084L74.141 5.11084Q73.1523 5.11084 72.7567 5.44482Q72.3612 5.77881 72.269 6.67969L77.3446 6.67969ZM86.4706 8.55176L86.4706 6.67969L81.3949 6.67969Q81.4872 5.77881 81.8827 5.44482Q82.2782 5.11084 83.267 5.11084L86.4706 5.11084L86.4706 3.23877L83.0868 3.23877Q81.7728 3.23877 80.9642 3.58154Q80.8788 3.6178 80.796 3.65918Q80.0948 4.00977 79.58 4.73291Q79.3334 5.0791 79.1585 5.45825Q78.7318 6.38367 78.7318 7.50586Q78.7318 9.29932 79.5929 10.4463Q79.907 10.8649 80.3358 11.1973Q80.857 11.5872 81.443 11.7789Q81.5043 11.799 81.5663 11.8169Q82.2255 12.0059 83.267 12.0059L86.4706 12.0059L86.4706 10.1338L83.5394 10.1338Q82.4408 10.1338 81.953 9.77344Q81.9333 9.75879 81.9143 9.74329Q81.4666 9.37793 81.3949 8.55176L86.4706 8.55176Z" fill-rule="evenodd" fill="currentColor"/>
</svg>
