<svg width="24.000000" height="24.000000" viewBox="0 0 24 24" fill="none" xmlns="http://www.w3.org/2000/svg" xmlns:xlink="http://www.w3.org/1999/xlink">
	<path id="矢量 6" d="M19.1606 16.5698Q19.6133 15.4053 19.6133 13.7178L19.6133 11.4326Q19.5957 8.84863 18.4707 7.43799Q18.0939 6.96553 17.6136 6.65131Q16.6598 6.02734 15.2979 6.02734Q14.021 6.02734 13.0987 6.59922Q12.5545 6.93664 12.1338 7.47314Q11 8.91895 11 11.5029L11 13.832Q11.0264 16.3721 12.1733 17.7739Q12.5974 18.2922 13.1372 18.6188Q14.0579 19.1758 15.3154 19.1758Q15.834 19.1758 16.3877 19.0615L18.6904 21.1621L19.7803 20.0986L17.873 18.3848Q18.708 17.7344 19.1606 16.5698ZM4.99707 17.6201L10.0156 17.6201L10.0156 19L3.37988 19L3.37988 6.20312L4.99707 6.20312L4.99707 17.6201ZM17.3413 8.46631Q18.0049 9.45508 18.0049 11.4854L18.0049 13.9375Q17.9697 15.8799 17.3105 16.8115Q17.1008 17.1079 16.8226 17.31Q16.2263 17.7432 15.3154 17.7432Q14.5143 17.7432 13.9487 17.3782Q13.5649 17.1305 13.2896 16.7148Q12.6084 15.6865 12.6084 13.7178L12.6084 11.4326Q12.6172 9.48145 13.2983 8.47949Q13.5736 8.07452 13.9531 7.83323Q14.5124 7.47754 15.2979 7.47754Q16.2128 7.47754 16.8128 7.91221Q17.1177 8.13312 17.3413 8.46631Z" fill-rule="evenodd" fill="currentColor"/>
</svg>
