<svg width="24.000000" height="24.000000" viewBox="0 0 24 24" fill="none" xmlns="http://www.w3.org/2000/svg" xmlns:xlink="http://www.w3.org/1999/xlink">
	<path id="矢量 489" d="M19.86 16.55Q19.53 16.69 19.15 16.69C18.61 16.69 18.13 16.5 17.72 16.1Q17.1 15.52 16.76 14.44C16.53 13.73 16.42 12.91 16.42 11.99Q16.42 10.6 16.76 9.54C16.99 8.83 17.3 8.28 17.72 7.89C18.13 7.49 18.61 7.3 19.15 7.3Q19.53 7.3 19.85 7.43Q20.7 7.78 21.17 9.06L22 8.39C21.76 7.64 21.39 7.05 20.89 6.63C20.39 6.21 19.82 6 19.17 6C18.46 6 17.81 6.25 17.22 6.75Q16.35 7.5 15.85 8.87Q15.34 10.24 15.34 11.99Q15.34 13.73 15.85 15.1Q16.35 16.47 17.22 17.23C17.81 17.74 18.46 18 19.17 18C19.82 18 20.39 17.78 20.89 17.36C21.39 16.93 21.76 16.35 22 15.6L21.17 14.93Q20.7 16.2 19.86 16.55ZM2 6.19L3.02 6.19L3.02 16.55L7.17 16.55L7.17 17.82L2 17.82L2 6.19ZM14.88 17.82L13.63 17.82L11.19 13.05L9.53 13.05L9.53 17.82L8.5 17.82L8.5 6.19L11.09 6.19C11.66 6.19 12.17 6.33 12.62 6.62C13.07 6.9 13.42 7.31 13.67 7.83Q14.04 8.61 14.04 9.64Q14.04 10.78 13.57 11.61C13.26 12.17 12.82 12.57 12.27 12.81L14.88 17.82ZM9.53 7.42L9.53 11.81L10.96 11.81Q11.74 11.81 12.22 11.43L12.22 11.43Q12.35 11.34 12.45 11.22Q12.49 11.17 12.52 11.12L12.52 11.12Q12.96 10.55 12.96 9.64C12.96 8.98 12.79 8.45 12.45 8.04C12.11 7.63 11.61 7.42 10.96 7.42L9.53 7.42Z" fill="currentColor" fill-opacity="1.000000" fill-rule="evenodd"/>
</svg>
