<svg width="24.000000" height="24.000000" viewBox="0 0 24 24" fill="none" xmlns="http://www.w3.org/2000/svg" xmlns:xlink="http://www.w3.org/1999/xlink">
	<path id="矢量 9" d="M8.96973 15.7656Q8.96973 14.89 8.5365 14.3888Q8.49579 14.3417 8.45117 14.2979Q7.93262 13.7881 6.5791 13.3047Q5.22559 12.8213 4.50928 12.2896Q3.79297 11.7578 3.43701 11.0767Q3.08105 10.3955 3.08105 9.5166Q3.08105 8.57611 3.46942 7.84074Q3.70895 7.38722 4.09619 7.01172Q4.34259 6.77278 4.62604 6.59184L4.62604 6.59184Q5.51025 6.02734 6.75488 6.02734Q7.74066 6.02734 8.53748 6.41536Q8.65002 6.47016 8.75879 6.53271Q9.19678 6.78455 9.53436 7.13351Q9.87421 7.48483 10.1123 7.93457Q10.2377 8.17139 10.33 8.42049L10.33 8.42049Q10.5869 9.11432 10.5869 9.90332L8.96973 9.90332Q8.96973 8.7168 8.39844 8.06641Q8.28247 7.93439 8.14587 7.82917Q7.6095 7.41602 6.75488 7.41602Q5.90143 7.41602 5.38428 7.83307Q5.31024 7.89274 5.24316 7.96094Q5.18964 8.01534 5.14148 8.07411Q4.70703 8.60413 4.70703 9.49023Q4.70703 9.91483 4.867 10.2667Q5.01166 10.585 5.28711 10.8438Q5.86719 11.3887 7.08008 11.8193Q8.96973 12.4434 9.78271 13.3574Q9.90485 13.4947 10.0086 13.6447Q10.5957 14.4932 10.5957 15.748Q10.5957 16.8149 10.1203 17.5904Q9.90253 17.9457 9.58496 18.2397Q9.48535 18.332 9.3786 18.4152L9.3786 18.4152Q8.40265 19.1758 6.83398 19.1758Q6.03516 19.1758 5.32416 18.926Q5.04163 18.8267 4.77295 18.688Q4.21454 18.3997 3.79733 17.9732L3.7973 17.9732Q3.50864 17.6781 3.2876 17.3169Q3.19263 17.1617 3.11432 16.9985Q2.74707 16.2328 2.74707 15.291L4.36426 15.291Q4.36426 16.3244 4.86761 16.9578L4.86761 16.9578Q4.9422 17.0517 5.02783 17.1367Q5.14441 17.2525 5.27582 17.348Q5.89215 17.7959 6.83398 17.7959Q7.87115 17.7959 8.40674 17.2776Q8.42035 17.2645 8.43359 17.251Q8.52045 17.1627 8.5932 17.064L8.59326 17.064Q8.96973 16.5537 8.96973 15.7656ZM12.7051 6.20312L12.7051 19L15.5703 19Q17.5941 19 18.8054 18.0079Q19.025 17.8281 19.2178 17.6157Q20.4746 16.2314 20.4746 13.6914L20.4746 11.5469Q20.4746 9.00684 19.2354 7.60498Q18.9333 7.26337 18.5719 7.005Q17.45 6.20312 15.7549 6.20312L12.7051 6.20312ZM14.3135 17.6201L14.3135 7.5918L15.7549 7.5918Q17.0455 7.5918 17.8008 8.22768Q17.9662 8.36691 18.106 8.53662Q18.8838 9.48145 18.8838 11.5029L18.8838 13.7705Q18.8662 15.6777 18.084 16.6489Q17.9836 16.7735 17.8682 16.8821Q17.0841 17.6201 15.6055 17.6201L14.3135 17.6201Z" fill-rule="evenodd" fill="currentColor"/>
</svg>
