<svg width="24.000000" height="24.000000" viewBox="0 0 24 24" fill="none" xmlns="http://www.w3.org/2000/svg" xmlns:xlink="http://www.w3.org/1999/xlink">
	<path id="矢量 5" d="M7.96973 15.7656Q7.96973 14.89 7.53653 14.3888Q7.49576 14.3417 7.45117 14.2979Q6.93262 13.7881 5.5791 13.3047Q4.22559 12.8213 3.50928 12.2896Q2.79297 11.7578 2.43701 11.0767Q2.08105 10.3955 2.08105 9.5166Q2.08105 8.57611 2.46942 7.84074Q2.70895 7.38722 3.09619 7.01172Q3.34259 6.77278 3.62604 6.59184L3.62604 6.59184Q4.51028 6.02734 5.75488 6.02734Q6.74063 6.02734 7.53745 6.41536Q7.64999 6.47017 7.75879 6.53271Q8.19678 6.78455 8.53436 7.13351Q8.87421 7.48482 9.1123 7.93457Q9.23767 8.17139 9.32993 8.42048L9.32996 8.42049Q9.58691 9.11432 9.58691 9.90332L7.96973 9.90332Q7.96973 8.7168 7.39844 8.06641Q7.28247 7.93439 7.14587 7.82917Q6.6095 7.41602 5.75488 7.41602Q4.9014 7.41602 4.38425 7.83307Q4.31027 7.89274 4.24316 7.96094Q4.18964 8.01533 4.14148 8.07411Q3.70703 8.60412 3.70703 9.49023Q3.70703 9.91484 3.86697 10.2667Q4.01163 10.585 4.28711 10.8438Q4.86719 11.3887 6.08008 11.8193Q7.96973 12.4434 8.78271 13.3574Q8.90482 13.4947 9.00858 13.6447Q9.5957 14.4932 9.5957 15.748Q9.5957 16.8149 9.1203 17.5904Q8.90253 17.9457 8.58496 18.2397Q8.48532 18.332 8.3786 18.4152L8.3786 18.4152Q7.40265 19.1758 5.83398 19.1758Q5.03516 19.1758 4.32413 18.926Q4.04163 18.8267 3.77295 18.688Q3.21451 18.3997 2.79733 17.9732L2.7973 17.9732Q2.50864 17.6781 2.2876 17.3169Q2.19263 17.1617 2.11432 16.9985Q1.74707 16.2328 1.74707 15.291L3.36426 15.291Q3.36426 16.3244 3.86761 16.9578L3.86761 16.9578Q3.9422 17.0517 4.02783 17.1367Q4.14444 17.2525 4.27582 17.348Q4.89215 17.7959 5.83398 17.7959Q6.87119 17.7959 7.40677 17.2776Q7.42035 17.2644 7.43359 17.251Q7.52045 17.1627 7.59323 17.064L7.59326 17.064Q7.96973 16.5537 7.96973 15.7656ZM19.5054 16.5698Q19.958 15.4053 19.958 13.7178L19.958 11.4326Q19.9404 8.84863 18.8154 7.43799Q18.4386 6.96553 17.9583 6.65131Q17.0045 6.02734 15.6426 6.02734Q14.3657 6.02734 13.4434 6.59922Q12.8992 6.93664 12.4785 7.47314Q11.3447 8.91895 11.3447 11.5029L11.3447 13.832Q11.3711 16.3721 12.5181 17.7739Q12.9421 18.2922 13.482 18.6188Q14.4026 19.1758 15.6602 19.1758Q16.1787 19.1758 16.7324 19.0615L19.0352 21.1621L20.125 20.0986L18.2178 18.3848Q19.0527 17.7344 19.5054 16.5698ZM17.686 8.46631Q18.3496 9.45508 18.3496 11.4854L18.3496 13.9375Q18.3145 15.8799 17.6553 16.8115Q17.4456 17.1079 17.1673 17.31Q16.5711 17.7432 15.6602 17.7432Q14.859 17.7432 14.2934 17.3782Q13.9096 17.1305 13.6343 16.7148Q12.9531 15.6865 12.9531 13.7178L12.9531 11.4326Q12.9619 9.48145 13.6431 8.47949Q13.9184 8.07452 14.2978 7.83323Q14.8571 7.47754 15.6426 7.47754Q16.5575 7.47754 17.1575 7.91221Q17.4624 8.13312 17.686 8.46631Z" fill-rule="evenodd" fill="currentColor"/>
</svg>
